<svg xmlns="http://www.w3.org/2000/svg" viewBox="0 0 531 120" role="img" aria-label="SP Trinetra logo"><g><defs><radialGradient id="iris" cx="50%" cy="42%" r="62%">
    <stop offset="0" stop-color="#F4B65C"/><stop offset=".55" stop-color="#E08A2B"/><stop offset="1" stop-color="#D2452F"/></radialGradient></defs>
  <g stroke-linecap="round" fill="none">
    <line x1="45" y1="26" x2="75" y2="26" stroke="#E08A2B" stroke-width="5.4"/>
    <line x1="41" y1="37" x2="79" y2="37" stroke="#D2452F" stroke-width="5.4"/>
    <line x1="45" y1="48" x2="75" y2="48" stroke="#E08A2B" stroke-width="5.4"/></g>
  <path d="M60 52 C63 56 63 58 60 60 C57 58 57 56 60 52 Z" fill="#D2452F"/>
  <path d="M60 60 Q78 81 60 102 Q42 81 60 60 Z" fill="#FBF4E8" stroke="#1E2340" stroke-width="3.2" stroke-linejoin="round"/>
  <circle cx="60" cy="81" r="11.5" fill="url(#iris)"/><circle cx="60" cy="81" r="5" fill="#1E2340"/><circle cx="62" cy="78.5" r="1.7" fill="#FFFFFF"/></g><path d="M58 192H180Q184 147 215.5 118.0Q247 89 304 89Q363 89 396.0 117.5Q429 146 429 191Q429 226 408.5 248.0Q388 270 357.5 282.0Q327 294 273 308Q205 326 162.5 344.5Q120 363 90.0 402.0Q60 441 60 506Q60 566 90.0 611.0Q120 656 174.0 680.0Q228 704 299 704Q400 704 464.5 653.5Q529 603 536 515H410Q407 553 374.0 580.0Q341 607 287 607Q238 607 207.0 582.0Q176 557 176 510Q176 478 195.5 457.5Q215 437 245.0 425.0Q275 413 327 399Q396 380 439.5 361.0Q483 342 513.5 302.5Q544 263 544 197Q544 144 515.5 97.0Q487 50 432.5 21.5Q378 -7 304 -7Q234 -7 178.0 17.5Q122 42 90.0 87.0Q58 132 58 192Z" transform="translate(138.00,96) scale(0.07000,-0.07000)" fill="#C9761B"/>
<path d="M315 282H189V0H75V695H315Q395 695 450.5 667.5Q506 640 533.5 593.0Q561 546 561 488Q561 435 536.0 388.0Q511 341 456.0 311.5Q401 282 315 282ZM444 488Q444 602 315 602H189V375H315Q380 375 412.0 404.5Q444 434 444 488Z" transform="translate(181.28,96) scale(0.07000,-0.07000)" fill="#C9761B"/>
<path d="M524 695V602H339V0H225V602H39V695Z" transform="translate(243.13,96) scale(0.07000,-0.07000)" fill="#1E2340"/>
<path d="M354 560V442H325Q258 442 223.5 408.0Q189 374 189 290V0H75V551H189V471Q214 513 255.5 536.5Q297 560 354 560Z" transform="translate(283.61,96) scale(0.07000,-0.07000)" fill="#1E2340"/>
<path d="M60 697Q60 728 81.0 749.0Q102 770 133 770Q163 770 184.0 749.0Q205 728 205 697Q205 666 184.0 645.0Q163 624 133 624Q102 624 81.0 645.0Q60 666 60 697ZM189 551V0H75V551Z" transform="translate(311.49,96) scale(0.07000,-0.07000)" fill="#1E2340"/>
<path d="M579 325V0H466V308Q466 382 429.0 421.5Q392 461 328 461Q264 461 226.5 421.5Q189 382 189 308V0H75V551H189V488Q217 522 260.5 541.0Q304 560 353 560Q418 560 469.5 533.0Q521 506 550.0 453.0Q579 400 579 325Z" transform="translate(330.97,96) scale(0.07000,-0.07000)" fill="#1E2340"/>
<path d="M576 233H155Q160 167 204.0 127.0Q248 87 312 87Q404 87 442 164H565Q540 88 474.5 39.5Q409 -9 312 -9Q233 -9 170.5 26.5Q108 62 72.5 126.5Q37 191 37 276Q37 361 71.5 425.5Q106 490 168.5 525.0Q231 560 312 560Q390 560 451.0 526.0Q512 492 546.0 430.5Q580 369 580 289Q580 258 576 233ZM461 325Q460 388 416.0 426.0Q372 464 307 464Q248 464 206.0 426.5Q164 389 156 325Z" transform="translate(377.40,96) scale(0.07000,-0.07000)" fill="#1E2340"/>
<path d="M208 458V153Q208 122 222.5 108.5Q237 95 272 95H342V0H252Q175 0 134.0 36.0Q93 72 93 153V458H28V551H93V688H208V551H342V458Z" transform="translate(421.59,96) scale(0.07000,-0.07000)" fill="#1E2340"/>
<path d="M354 560V442H325Q258 442 223.5 408.0Q189 374 189 290V0H75V551H189V471Q214 513 255.5 536.5Q297 560 354 560Z" transform="translate(448.63,96) scale(0.07000,-0.07000)" fill="#1E2340"/>
<path d="M297 560Q362 560 410.5 534.5Q459 509 488 471V551H603V0H488V82Q459 43 409.0 17.0Q359 -9 295 -9Q224 -9 165.0 27.5Q106 64 71.5 129.5Q37 195 37 278Q37 361 71.5 425.0Q106 489 165.5 524.5Q225 560 297 560ZM321 461Q277 461 239.0 439.5Q201 418 177.5 376.5Q154 335 154 278Q154 221 177.5 178.0Q201 135 239.5 112.5Q278 90 321 90Q365 90 403.0 112.0Q441 134 464.5 176.5Q488 219 488 276Q488 333 464.5 375.0Q441 417 403.0 439.0Q365 461 321 461Z" transform="translate(476.51,96) scale(0.07000,-0.07000)" fill="#1E2340"/></svg>